<?xml version="1.0" standalone="no"?><!DOCTYPE svg PUBLIC "-//W3C//DTD SVG 1.1//EN" "http://www.w3.org/Graphics/SVG/1.1/DTD/svg11.dtd"><svg t="1532421142788" class="icon" style="" viewBox="0 0 1024 1024" version="1.1" xmlns="http://www.w3.org/2000/svg" p-id="780" xmlns:xlink="http://www.w3.org/1999/xlink" width="86" height="86"><defs><style type="text/css"></style></defs><path d="M839.31591147 299.46311147a78.85558507 78.85558507 0 0 1 78.76456213 78.76456213V814.64888853a78.85558507 78.85558507 0 0 1-78.76456213 78.7645632H184.68408853a78.85558507 78.85558507 0 0 1-78.76456213-78.7645632V378.2276736a78.85558507 78.85558507 0 0 1 78.76456213-78.76456213h654.63182294m0-30.34074134H184.68408853a109.10530347 109.10530347 0 0 0-109.10530346 109.10530347V814.64888853a109.10530347 109.10530347 0 0 0 109.10530346 109.10530454h654.63182294a109.10530347 109.10530347 0 0 0 109.10530346-109.10530454V378.2276736a109.10530347 109.10530347 0 0 0-109.10530346-109.10530347zM745.38097813 236.06613333h-84.89339306v-69.73819306a39.41262187 39.41262187 0 0 0-39.3822816-39.38228054H402.89469653a39.41262187 39.41262187 0 0 0-39.3822816 39.38228054v69.73819306h-84.89339306v-69.73819306c0-68.5245632 55.75111147-124.26050347 124.27567466-124.26050347h218.21060694c68.5245632 0 124.26050347 55.75111147 124.26050346 124.26050347v69.73819306z m-54.55265173-30.34074026h24.2119104v-39.3974528a94.0259552 94.0259552 0 0 0-93.9197632-93.91976214H402.89469653a94.0259552 94.0259552 0 0 0-93.93493333 93.91976214v39.3974528h24.2119104v-39.3974528a69.8140448 69.8140448 0 0 1 69.72302293-69.72302187h218.21060694a69.8140448 69.8140448 0 0 1 69.72302293 69.72302187v39.3974528z" fill="#e4e7ed" p-id="781"></path><path d="M581.72302187 775.26660693h-139.44604374v-109.10530346h-109.10530453V526.71525973h109.10530453v-109.09013333h139.44604374v109.09013333h109.10530453v139.44604374h-109.10530453v109.10530346z m-109.10530347-30.34074026h78.7645632v-109.10530347h109.10530347V557.056h-109.10530347v-109.09013333h-78.7645632v109.09013333h-109.10530347v78.7645632h109.10530347v109.10530347z" fill="#e4e7ed" p-id="782"></path></svg>