<?xml version="1.0" standalone="no"?><!DOCTYPE svg PUBLIC "-//W3C//DTD SVG 1.1//EN" "http://www.w3.org/Graphics/SVG/1.1/DTD/svg11.dtd"><svg t="1532421762778" class="icon" style="" viewBox="0 0 1024 1024" version="1.1" xmlns="http://www.w3.org/2000/svg" p-id="1509" xmlns:xlink="http://www.w3.org/1999/xlink" width="86" height="86"><defs><style type="text/css"></style></defs><path d="M902.95864889 872.30236445H121.04135111c-35.89916445 0-69.75943111-16.74808889-92.76984889-46.16647112a126.26602667 126.26602667 0 0 1-23.73859555-106.89649778l2.25735111-5.97105777 182.62698667-358.99164445c11.57802667-22.35505778 17.62190222-47.33155555 17.62190222-72.30805333v-67.35644445c0-24.68522667 3.85934222-48.13255111 11.50520888-69.54097777C255.60860445 40.86897778 352.23779555-70.54222222 512-70.54222222s256.39139555 111.4112 293.45564445 215.54062222c7.64586667 21.40842667 11.50520889 44.85575111 11.50520888 69.54097778v67.42926222c0 25.70467555 6.40796445 52.86570667 17.62190222 74.49258667l184.88433778 362.77816888c8.95658667 36.62734222 0 76.60430222-23.73859555 106.89649778a117.60071111 117.60071111 0 0 1-92.76984889 46.16647112zM57.83552 735.25930667a70.48760889 70.48760889 0 0 0 14.05383111 56.57941333c12.37902222 15.80145778 30.36501333 24.97649778 49.152 24.97649778h781.91729778a62.69610667 62.69610667 0 0 0 49.152-24.97649778 70.34197333 70.34197333 0 0 0 14.05383111-56.57941333l-180.87936-353.45749334a222.09422222 222.09422222 0 0 1-23.66577778-99.83317333v-67.35644445a150.7328 150.7328 0 0 0-8.30122667-50.89962666C738.39047111 121.76952889 676.85944889-15.05507555 512-15.05507555S285.75516445 121.76952889 270.82752 163.63975111a149.42208 149.42208 0 0 0-8.37404445 50.97244444v67.42926223c0 33.86026667-8.22840889 67.57489778-23.73859555 97.57582222l-180.87936 355.64202667z" fill="#e4e7ed" p-id="1510"></path><path d="M512 1094.10531555a249.76497778 249.76497778 0 0 1-249.54652445-249.61934222 27.67075555 27.67075555 0 0 1 55.4143289 0 194.42346667 194.42346667 0 0 0 194.20501333 194.20501334 194.42346667 194.42346667 0 0 0 194.13219555-194.20501334 27.74357333 27.74357333 0 0 1 55.48714667 0A249.91061333 249.91061333 0 0 1 512 1094.10531555z" fill="#e4e7ed" p-id="1511"></path></svg>